<?xml version="1.0" encoding="UTF-8" standalone="no"?>
<svg width="83px" height="18px" viewBox="0 0 83 18" version="1.1" xmlns="http://www.w3.org/2000/svg" xmlns:xlink="http://www.w3.org/1999/xlink">
    <!-- Generator: Sketch 3.7.2 (28276) - http://www.bohemiancoding.com/sketch -->
    <title>logo</title>
    <desc>Created with Sketch.</desc>
    <defs></defs>
    <g id="Page-3" stroke="none" stroke-width="1" fill="none" fill-rule="evenodd">
        <g id="logo" fill="#1E1E1E">
            <path d="M16.8739566,17.8488326 L13.0094666,17.8488326 L10.4429732,7.40726554 C10.2266393,8.2798795 10.0152253,9.1475224 9.80872479,10.0102203 C9.60222428,10.8729182 9.39081027,11.7455191 9.17447642,12.6280491 C8.95814256,13.5105791 8.74672855,14.38318 8.54022805,15.2458779 C8.33372754,16.1085758 8.12231354,16.9762187 7.90597968,17.8488326 L4.04148961,17.8488326 L0,0 L3.71699044,0 L6.04748445,11.0067801 C6.26381831,10.0945019 6.47523232,9.17727938 6.68173282,8.25508509 C6.88823333,7.33289079 7.10456394,6.41071033 7.33073116,5.48851603 C7.55689837,4.56632173 7.77322899,3.64414127 7.97972949,2.72194697 C8.18622999,1.79975268 8.397644,0.892446093 8.61397786,0 L12.2719685,0 L14.8384619,11.0067801 C15.035129,10.0945019 15.2268766,9.17727938 15.4137104,8.25508509 C15.6005442,7.33289079 15.7922918,6.41071033 15.9889589,5.48851603 C16.185626,4.56632173 16.3773736,3.64414127 16.5642074,2.72194697 C16.7510412,1.79975268 16.9427888,0.892446093 17.1394559,0 L20.9744461,0 L16.8739566,17.8488326 Z M32.5974162,17.8488326 L32.5974162,10.6498035 L26.6974314,10.6498035 L26.6974314,17.8488326 L23.0984406,17.8488326 L23.0984406,0 L26.6974314,0 L26.6974314,7.1692811 L32.5974162,7.1692811 L32.5974162,0 L36.196407,0 L36.196407,17.8488326 L32.5974162,17.8488326 Z M39.8248976,17.8488326 L39.8248976,0 L51.4478677,0 L51.4478677,3.48052236 L43.4238884,3.48052236 L43.4238884,7.13953305 L51.1823684,7.13953305 L51.1823684,10.6200554 L43.4238884,10.6200554 L43.4238884,14.3683103 L51.4478677,14.3683103 L51.4478677,17.8488326 L39.8248976,17.8488326 Z M66.0208303,17.8488326 L64.8408333,14.4278064 L61.7433412,5.25946641 L58.6753492,14.4278064 C58.478682,14.9831062 58.2771012,15.5532715 58.0706007,16.1383195 C57.8641002,16.7233675 57.6625194,17.2935328 57.4658523,17.8488326 L53.6308621,17.8488326 L59.7668464,1.82217793e-15 L63.7493361,1.82217793e-15 L69.8558204,17.8488326 L66.0208303,17.8488326 Z M78.0862993,3.48052236 L78.0862993,17.8488326 L74.4578086,17.8488326 L74.4578086,3.48052236 L69.6788209,3.48052236 L69.6788209,0 L82.8357871,0 L82.8357871,3.48052236 L78.0862993,3.48052236 Z" id="Rectangle-4-Copy"></path>
        </g>
    </g>
</svg>