<?xml version="1.0" encoding="UTF-8" standalone="no"?>
<svg width="150px" height="22px" viewBox="0 0 150 22" version="1.1" xmlns="http://www.w3.org/2000/svg" xmlns:xlink="http://www.w3.org/1999/xlink" xmlns:sketch="http://www.bohemiancoding.com/sketch/ns">
    <!-- Generator: Sketch 3.4.4 (17249) - http://www.bohemiancoding.com/sketch -->
    <title>Artboard 10</title>
    <desc>Created with Sketch.</desc>
    <defs></defs>
    <g id="Icons" stroke="none" stroke-width="1" fill="none" fill-rule="evenodd" sketch:type="MSPage">
        <g id="Artboard-10" sketch:type="MSArtboardGroup" fill="#D5D5D5">
            <g id="WHEAT-+-CO.-+-Imported-Layers" sketch:type="MSLayerGroup" transform="translate(1.000000, 1.000000)">
                <path d="M47.2337257,19.1586715 L43.13369,19.1586715 L40.4107655,8.17307959 C40.1812458,9.09115834 39.9569458,10.004007 39.7378589,10.9116531 C39.5187719,11.8192991 39.2944719,12.7373641 39.0649522,13.6658756 C38.8354326,14.594387 38.6111326,15.512452 38.3920456,16.420098 C38.1729586,17.3277441 37.9486587,18.2405928 37.719139,19.1586715 L33.6191033,19.1586715 L29.3312796,0.379881907 L33.2748254,0.379881907 L35.7473661,11.9601355 C35.9768858,11.0003259 36.2011857,10.0353144 36.4202727,9.0650721 C36.6393597,8.09482979 36.8688759,7.12460202 37.1088283,6.15435971 C37.3487807,5.1841174 37.578297,4.21388964 37.7973839,3.24364732 C38.0164709,2.27340501 38.2407709,1.31882608 38.4702906,0.379881907 L42.3512404,0.379881907 L45.0741649,11.9601355 C45.2828192,11.0003259 45.486254,10.0353144 45.6844756,9.0650721 C45.8826971,8.09482979 46.086132,7.12460202 46.2947862,6.15435971 C46.5034405,5.1841174 46.7068754,4.21388964 46.9050969,3.24364732 C47.1033185,2.27340501 47.3067533,1.31882608 47.5154076,0.379881907 L51.5841453,0.379881907 L47.2337257,19.1586715 Z M63.9155505,19.1586715 L63.9155505,11.5845597 L57.655954,11.5845597 L57.655954,19.1586715 L53.8376001,19.1586715 L53.8376001,0.379881907 L57.655954,0.379881907 L57.655954,7.92269573 L63.9155505,7.92269573 L63.9155505,0.379881907 L67.7339044,0.379881907 L67.7339044,19.1586715 L63.9155505,19.1586715 Z M71.5835562,19.1586715 L71.5835562,0.379881907 L83.9149614,0.379881907 L83.9149614,4.04174588 L75.4019101,4.04174588 L75.4019101,7.89139775 L83.6332796,7.89139775 L83.6332796,11.5532617 L75.4019101,11.5532617 L75.4019101,15.4968075 L83.9149614,15.4968075 L83.9149614,19.1586715 L71.5835562,19.1586715 Z M99.3761649,19.1586715 L98.1242456,15.5594035 L91.5829672,15.5594035 C91.3743129,16.1436354 91.1604455,16.7435074 90.9413585,17.3590375 C90.7222716,17.9745676 90.5084041,18.5744396 90.2997499,19.1586715 L86.2310121,19.1586715 L92.7409925,0.379881907 L96.9662202,0.379881907 L103.444903,19.1586715 L99.3761649,19.1586715 Z M94.8379574,5.85702887 C94.671034,6.3577991 94.4988968,6.85856182 94.3215407,7.35933204 C94.1441845,7.86010227 93.9668311,8.36608126 93.789475,8.8772842 C93.6121188,9.38848714 93.4347654,9.89446614 93.2574092,10.3952364 C93.0800531,10.8960066 92.9079159,11.3967693 92.7409925,11.8975395 L96.9662202,11.8975395 L94.8379574,5.85702887 Z M112.17704,4.04174588 L112.17704,19.1586715 L108.327388,19.1586715 L108.327388,4.04174588 L103.257115,4.04174588 L103.257115,0.379881907 L117.216015,0.379881907 L117.216015,4.04174588 L112.17704,4.04174588 Z" id="WHEAT" sketch:type="MSShapeGroup"></path>
                <path d="M130.11094,11.244243 C129.930703,10.7876436 129.61229,10.4091523 129.15569,10.108758 L126.902744,10.108758 C126.662428,10.2889946 126.428124,10.5293065 126.199824,10.8297009 L126.199824,16.2007254 C126.223856,16.3088674 126.45816,16.5311559 126.902744,16.8675976 L129.191737,16.8675976 C129.564226,16.6032506 129.870624,16.2427827 130.11094,15.7861833 L132.165627,16.2908433 C131.997406,16.735427 131.793141,17.119926 131.552825,17.4443519 C131.336542,17.7807936 131.024136,18.1142264 130.6156,18.4446602 C130.207063,18.775094 129.72644,18.952324 129.173714,18.9763556 L126.812626,18.9763556 C126.356026,18.952324 125.959512,18.8381759 125.62307,18.6339077 C125.418802,18.5017342 125.184498,18.300473 124.920151,18.030118 C124.655804,17.7597631 124.451539,17.5284629 124.307349,17.3362105 C124.103081,16.9757372 124.000949,16.6032538 124.000949,16.218749 L124.000949,10.7576066 C123.988933,10.361086 124.091065,9.98860256 124.307349,9.64014509 C124.427507,9.47192424 124.622761,9.24963573 124.893115,8.97327291 C125.16347,8.69691008 125.412794,8.48663718 125.641094,8.34244788 C125.96552,8.15019548 126.356026,8.03604732 126.812626,8 L129.173714,8 C129.72644,8.02403155 130.204059,8.20126157 130.606588,8.53169539 C131.009116,8.8621292 131.318518,9.18955415 131.534802,9.51398008 C131.811165,9.91050065 132.01543,10.2949997 132.147603,10.6674887 L130.11094,11.244243 Z M142.348945,16.2007254 C142.360961,16.5852302 142.258829,16.9577137 142.042545,17.3181869 C141.910371,17.4864078 141.712114,17.7117002 141.447767,17.9940709 C141.18342,18.2764416 140.943108,18.4897184 140.726824,18.6339077 C140.390382,18.8381759 139.993867,18.952324 139.537268,18.9763556 L136.797685,18.9763556 C136.32907,18.952324 135.932555,18.8381759 135.608129,18.6339077 C135.391845,18.4897184 135.148529,18.2764416 134.878175,17.9940709 C134.60782,17.7117002 134.412566,17.4864078 134.292408,17.3181869 C134.076125,16.9577137 133.973992,16.5852302 133.986008,16.2007254 L133.986008,10.7756301 C133.973992,10.3670938 134.076125,9.98860256 134.292408,9.64014509 C134.412566,9.47192424 134.60782,9.24963573 134.878175,8.97327291 C135.148529,8.69691008 135.391845,8.48663718 135.608129,8.34244788 C135.932555,8.1381797 136.32907,8.02403155 136.797685,8 L139.537268,8 C139.993867,8.02403155 140.390382,8.1381797 140.726824,8.34244788 C140.943108,8.48663718 141.18342,8.69691008 141.447767,8.97327291 C141.712114,9.24963573 141.910371,9.47192424 142.042545,9.64014509 C142.258829,9.98860256 142.360961,10.3670938 142.348945,10.7756301 L142.348945,16.2007254 Z M140.150069,10.7756301 C139.957817,10.4992673 139.741536,10.2769788 139.501221,10.108758 L136.851756,10.108758 C136.671519,10.2409315 136.449231,10.4692278 136.184884,10.7936537 L136.184884,16.2007254 C136.425199,16.5131356 136.64148,16.7354241 136.833732,16.8675976 L139.483197,16.8675976 C139.67545,16.7113925 139.897738,16.489104 140.150069,16.2007254 L140.150069,10.7756301 Z M144.655963,18.8862377 L144.655963,16.3268904 L147.197286,16.3268904 L147.197286,18.8862377 L144.655963,18.8862377 Z" id="CO." sketch:type="MSShapeGroup"></path>
                <path d="M17.2109018,8.05944236 C17.0624035,8.17407211 16.9245516,8.300312 16.7871815,8.42606998 C16.5593696,6.77563195 15.6509265,5.23780208 14.2155385,4.12240858 C13.9355261,3.90697334 13.5506717,3.90572685 13.2719958,4.12053644 C13.1234976,4.23516619 12.9856456,4.36140608 12.8482756,4.48716406 C12.6204637,2.83672603 11.7125044,1.29937999 10.2746973,0.181567321 C9.99468481,-0.0338679242 9.6103143,-0.0346305792 9.33163841,0.180179011 C8.34664205,0.945513985 7.61460359,1.91947027 7.17924164,2.98962457 C6.98263957,2.71013237 6.77060842,2.44219857 6.52675526,2.19834541 C5.14540452,0.816994665 3.15226139,0.17129823 1.05709988,0.432722676 C0.708066617,0.475971818 0.435300226,0.748738209 0.392533003,1.09728955 C0.132554315,3.19100531 0.776323072,5.18607611 2.15767382,6.56742686 C2.40152698,6.81128002 2.66946078,7.02331117 2.94895298,7.21991323 C1.87879867,7.65527518 0.904842393,8.38731365 0.139507419,9.37231 C-0.0772375141,9.64905055 -0.0745395167,10.0353564 0.140895728,10.3153689 C1.2587084,11.753176 2.79605443,12.6611353 4.44649247,12.8889472 C4.32266983,13.0282526 4.1944946,13.1641692 4.07986485,13.3126674 C3.86505526,13.5913433 3.86630175,13.9761977 4.08173699,14.2562101 C5.19906583,15.6935334 6.73496035,16.6000412 8.38539839,16.8278531 C8.25964041,16.9652231 8.13340052,17.1030751 8.01877077,17.2515733 C7.80396118,17.5302492 7.80520767,17.9151036 8.02015908,18.1946322 C9.31806208,19.864577 11.181453,20.8248509 13.1317943,20.8282378 C14.7861366,20.8334518 16.3802015,20.1499656 17.6206621,18.909505 C17.6471677,18.8829994 17.6736675,18.8535966 17.700173,18.827091 L19.125069,20.251987 C19.4255309,20.5524489 19.9122715,20.5534147 20.2115434,20.2541427 C20.5108154,19.9548707 20.5098496,19.4681302 20.2093877,19.1676683 L18.7844917,17.7427723 C18.8109973,17.7162667 18.8404001,17.6897669 18.8669057,17.6632614 C20.1073663,16.4228008 20.7893991,14.8263186 20.7861205,13.1739117 C20.7822516,11.2240522 19.8224596,9.36017943 18.1520329,8.06275835 C17.8763597,7.84395158 17.4895776,7.84463277 17.2109018,8.05944236 L17.2109018,8.05944236 Z M15.3079504,9.21949575 C15.3100055,10.4986374 14.7484401,11.724993 13.7566212,12.7022968 C12.7570915,11.7403568 12.1940035,10.4958348 12.1914588,9.21331211 C12.1889217,7.93465242 12.7523765,6.68705404 13.742788,5.73051106 C14.74039,6.69437872 15.3054056,7.93697304 15.3079504,9.21949575 L15.3079504,9.21949575 Z M12.6684472,13.8086306 C11.6916195,14.7970703 10.4647878,15.3620149 9.18564615,15.3599598 C7.90312344,15.357415 6.65860144,14.7943271 5.69666146,13.7947974 C6.65898747,12.7986029 7.90080282,12.2409311 9.17946251,12.2434682 C10.4619852,12.2460129 11.7065072,12.8091009 12.6684472,13.8086306 L12.6684472,13.8086306 Z M11.3846437,5.28058983 C11.3866988,6.55973144 10.8386655,7.7919084 9.8333145,8.76339088 C8.83378481,7.80145091 8.27118071,6.55741274 8.26863597,5.27489003 C8.26561506,3.9957465 8.81265585,2.75004705 9.81996516,1.79208898 C10.8175672,2.75595663 11.382099,3.99806712 11.3846437,5.28058983 L11.3846437,5.28058983 Z M1.89723354,1.91193705 C3.28159071,1.88812568 4.5573455,2.37353262 5.46647266,3.28265978 C6.37559982,4.19178694 6.86100676,5.46754173 6.83719539,6.8518989 C5.45283821,6.87571027 4.17708343,6.39030333 3.26795627,5.48117617 C2.35882911,4.57204901 1.87342217,3.29629423 1.89723354,1.91193705 L1.89723354,1.91193705 Z M5.25856896,8.30311051 C6.54109168,8.30565525 7.78512984,8.86825935 8.74706982,9.86778905 C7.77796053,10.8523811 6.54341038,11.4211734 5.26426876,11.4191182 C3.98174605,11.4165735 2.73963557,10.8520417 1.77576791,9.8544397 C2.73178298,8.84133203 3.97749776,8.30201728 5.25856896,8.30311051 L5.25856896,8.30311051 Z M13.1103978,19.3003172 C11.8278751,19.2977725 10.5838369,18.7351684 9.62189697,17.7356387 C10.5803446,16.7317105 11.8260383,16.1817724 13.104698,16.1843095 C14.3872207,16.1868542 15.6312589,16.7494583 16.5931989,17.748988 C15.6163712,18.7374277 14.3900233,19.3028562 13.1103978,19.3003172 L13.1103978,19.3003172 Z M19.2327017,13.1598532 C19.2352407,14.4394786 18.6736752,15.6658342 17.6813725,16.6426542 C16.6818428,15.6807143 16.1192387,14.4366761 16.116694,13.1541534 C16.1141569,11.8754937 16.6645845,10.6331811 17.6680231,9.67135232 C18.6656252,10.63522 19.2301569,11.8773305 19.2327017,13.1598532 L19.2327017,13.1598532 Z" id="Imported-Layers" sketch:type="MSShapeGroup"></path>
            </g>
        </g>
    </g>
</svg>