<?xml version="1.0" encoding="UTF-8" standalone="no"?>
<svg width="55px" height="55px" viewBox="0 0 55 55" version="1.1" xmlns="http://www.w3.org/2000/svg" xmlns:xlink="http://www.w3.org/1999/xlink" xmlns:sketch="http://www.bohemiancoding.com/sketch/ns">
    <!-- Generator: Sketch 3.4.4 (17249) - http://www.bohemiancoding.com/sketch -->
    <title>Artboard 1 Copy</title>
    <desc>Created with Sketch.</desc>
    <defs></defs>
    <g id="Page-1" stroke="none" stroke-width="1" fill="none" fill-rule="evenodd" sketch:type="MSPage">
        <g id="Artboard-1-Copy" sketch:type="MSArtboardGroup" fill="#D5D5D5">
            <g id="Page-1" sketch:type="MSLayerGroup" transform="translate(4.000000, 3.000000)">
                <path d="M12.699,35.875 C14.348,37.523 13.75,40.676 11.348,43.074 C8.574,45.926 1.824,47.723 1.523,47.801 L0.398,48.102 L0.699,46.977 C0.773,46.676 2.801,39.777 5.426,37.227 C6.852,35.801 8.652,34.977 10.227,34.977 C11.199,34.898 12.023,35.273 12.699,35.875 L12.699,35.875 Z" id="Fill-1" sketch:type="MSShapeGroup"></path>
                <path d="M46.602,0.852 L46.602,2.125 C46.602,13.227 44.426,21.551 33.852,31.301 C34,36.551 32.426,40.75 29.051,44.125 L28,45.176 L21.477,35.574 C19.227,36.551 16.078,35.723 13.828,33.473 C11.5,31.148 10.75,28 11.727,25.75 L2.125,19.148 L3.25,18.098 C6.625,14.723 10.898,13.148 16.148,13.371 C25.973,2.871 34.297,0.77 45.398,0.848 L46.602,0.852 Z M36.023,16.227 C36.098,13.602 34.074,11.352 31.375,11.203 C28.75,11.055 26.5,13.152 26.352,15.852 C26.277,18.477 28.301,20.727 31,20.875 C33.703,21.027 35.875,18.926 36.023,16.227 L36.023,16.227 Z" id="Fill-2" sketch:type="MSShapeGroup"></path>
            </g>
        </g>
    </g>
</svg>